<?xml version="1.0" encoding="UTF-8" standalone="no"?>
<!-- Created with Inkscape (http://www.inkscape.org/) -->

<svg
   version="1.1"
   id="svg2"
   width="2518.3154"
   height="679.30652"
   viewBox="0 0 2518.3154 679.30652"
   sodipodi:docname="Logotipo_de_la_Universidad_del_Norte.png"
   inkscape:export-filename="Logotipo_de_la_Universidad_del_Norte.svg"
   inkscape:export-xdpi="96"
   inkscape:export-ydpi="96"
   xmlns:inkscape="http://www.inkscape.org/namespaces/inkscape"
   xmlns:sodipodi="http://sodipodi.sourceforge.net/DTD/sodipodi-0.dtd"
   xmlns="http://www.w3.org/2000/svg"
   xmlns:svg="http://www.w3.org/2000/svg">
  <defs
     id="defs6" />
  <sodipodi:namedview
     id="namedview4"
     pagecolor="#ffffff"
     bordercolor="#000000"
     borderopacity="0.25"
     inkscape:showpageshadow="2"
     inkscape:pageopacity="0.0"
     inkscape:pagecheckerboard="0"
     inkscape:deskcolor="#d1d1d1"
     showgrid="false" />
  <g
     inkscape:groupmode="layer"
     inkscape:label="Image"
     id="g8"
     transform="translate(-19.305004,-22.516064)">
    <path
       style="opacity:1;fill:#000000;stroke:#000000;stroke-width:5;stroke-dasharray:none;stroke-opacity:1"
       d="m 72.320611,701.48927 c -5.863003,-2.0954 -5.338605,-8.0696 4.067206,-46.33523 9.033662,-36.75164 10.452434,-40.47076 16.628588,-43.5897 l 4.195795,-2.11887 229.30866,-0.74715 c 250.16796,-0.81511 234.47631,-1.12163 238.115,4.65135 0.80894,1.28344 6.27739,19.55657 12.15209,40.60695 14.90252,53.39905 15.63387,51.92295 -21.41173,43.21635 -11.72489,-2.7556 -55.79645,-12.6863 -97.9368,-22.0682 -42.14034,-9.382 -87.10819,-19.50236 -99.92854,-22.48982 -30.9259,-7.20651 -30.20715,-7.22239 -68.36036,1.51031 -16.68145,3.81811 -70.67925,16.19311 -119.99511,27.50001 -84.858169,19.4558 -93.192909,21.1655 -96.834799,19.864 z m 22.602566,-5.7561 c 254.074463,-58.84 227.049083,-54.25548 266.397433,-45.19094 15.675,3.61099 59.1,13.36084 96.5,21.66634 37.4,8.3054 79.43334,17.7724 93.40742,21.0377 30.80627,7.1985 33.09258,7.1966 33.09258,-0.027 0,-4.1899 -21.38796,-77.71536 -23.1363,-79.53577 -2.93211,-3.053 -459.99865,-3.15624 -466.163579,-0.10529 -5.536085,2.73974 -6.770923,5.95807 -15.067008,39.26878 -13.055098,52.41928 -14.037721,49.60408 14.969454,42.88648 z M 1817.3206,605.17992 c -55.6199,-7.61548 -86.2661,-58.61926 -71.2,-118.49672 20.9194,-83.14112 155.1207,-85.41923 176.2023,-2.99109 19.5903,76.59762 -28.2869,131.99169 -105.0023,121.48781 z m 46.5,-4.83314 c 46.3886,-11.78923 69.75,-60.13159 55.8942,-115.66358 -19.3635,-77.60643 -147.3053,-77.85298 -169.7714,-0.32715 -22.0673,76.14982 36.3832,135.68513 113.8772,115.99073 z m -39.7655,-35.18896 c -32.9127,-8.30187 -38.8662,-79.4341 -8.0521,-96.20523 28.5752,-15.55261 54.5425,3.56025 56.0169,41.23061 1.6391,41.87629 -16.6752,62.8671 -47.9648,54.97462 z m 26.9034,-5.24594 c 27.6527,-14.25579 24.7469,-80.4735 -3.9674,-90.40998 -33.0238,-11.42776 -57.1661,24.35349 -45.3286,67.1813 6.321,22.86931 29.1378,33.62079 49.296,23.22868 z M 28.282501,600.9332 c -3.264412,-1.64615 -5.067837,-3.45173 -6.719693,-6.72772 l -2.257803,-4.47773 0.257803,-185.52227 0.257803,-185.52228 2.097534,-4 c 4.522272,-8.62398 -4.629972,-7.93494 112.902465,-8.5 97.51895,-0.46884 104.16299,-0.61073 106.61541,-2.27682 1.97748,-1.34344 6.45214,-10.32568 18.34552,-36.82602 28.28785,-63.02982 37.75152,-86.216125 49.95734,-122.397155 7.55171,-22.38509 9.10463,-24.63063 14.1422,-20.44981 2.19358,1.82051 2.17103,566.263315 -0.0228,571.513965 -3.31854,7.94237 7.91817,7.38911 -150.57575,7.41388 l -140.538139,0.022 z m 287.448179,-1.75 c 1.60053,-0.825 3.81865,-2.72779 4.92914,-4.22843 2.26047,-3.05463 4.06414,-564.414705 1.82394,-567.667285 -1.98957,-2.88866 -3.91793,0.0463 -7.58593,11.54585 -5.35313,16.78257 -18.20991,51.02145 -26.62971,70.917535 -9.80172,23.16159 -39.79289,90.41534 -41.5445,93.16152 -3.88095,6.0846 2.12226,5.77081 -110.40301,5.77081 -114.517557,0 -105.916501,-0.52684 -111.395469,6.82325 l -2.10453,2.82324 -0.285681,184.17676 c -0.331762,213.88514 -1.405526,194.70535 11.05821,197.524 7.785484,1.76067 278.65611,0.94726 282.13754,-0.84725 z M 151.8842,583.08535 C 91.096595,578.08118 51.757378,545.77178 39.149006,490.49564 l -2.238198,-9.81244 -0.329497,-120.25 -0.329497,-120.25 h 42.991437 42.991439 l 0.36954,115.75 c 0.41117,128.78776 0.22906,125.2404 7.1862,139.97998 14.88897,31.54415 60.43188,33.94841 78.22919,4.12981 9.82016,-16.45324 10.29346,-23.46753 10.29757,-152.60979 l 0.003,-107.25 h 43 43 v 113.44878 c 0,138.67743 0.10741,137.39955 -13.95691,166.05122 -22.78169,46.41059 -71.8703,68.88556 -138.4795,63.40215 z m 50.69817,-4.35601 c 46.91633,-8.66274 78.41348,-34.53607 92.13027,-75.68038 7.29515,-21.88224 7.71805,-30.77672 7.38698,-155.36576 l -0.27901,-105 -40.75,-0.26122 -40.75,-0.26121 -0.006,111.26121 c -0.007,128.33174 0.0421,127.51156 -8.66914,145.3733 -15.88628,32.57356 -66.90879,32.90817 -83.2452,0.54592 -7.84081,-15.53255 -7.43561,-8.49442 -8.04034,-139.658 l -0.53932,-117 -40.749999,-0.26122 -40.75,-0.26121 0.0034,109.76121 c 0.0045,143.26472 0.8546,150.60084 20.867382,180.07096 26.077102,38.40024 84.828557,57.54951 143.390957,46.7364 z m 138.8319,23.14742 c -1.87348,-0.65646 -4.34848,-2.46405 -5.5,-4.01687 l -2.09366,-2.8233 v -285.0677 c 0,-259.869185 0.14101,-285.156635 1.59522,-286.073935 4.19516,-2.64627 6.4396,-0.2629 10.37919,11.02162 6.68676,19.15349 19.54537,52.20462 29.47717,75.766625 20.37371,48.33417 38.43852,89.76014 39.96227,91.64092 2.94016,3.62905 8.16061,3.81103 110.02043,3.83522 114.16674,0.0271 106.06278,-0.57623 111.13163,8.27395 l 2.43409,4.24991 v 186.5 c 0,211.99786 0.91068,190.98773 -8.48477,195.75 l -4.43901,2.25 -140.53811,-0.0564 c -106.19212,-0.0427 -141.37058,-0.34814 -143.94445,-1.25 z m 287.31471,-3.24405 c 8.32562,-4.36795 7.59163,14.28946 7.59163,-192.97202 V 221.60698 l -2.25,-4.43901 c -4.66505,-9.20365 4.16931,-8.52665 -106.75,-8.18047 -103.26972,0.32231 -109.55074,0.0995 -113.68281,-4.03256 -4.20717,-4.20717 -50.82147,-114.682825 -66.35952,-157.271735 -12.84108,-35.19668 -11.49068,-66.56939 -11.2531,261.433205 0.21517,297.07788 0.0424,286.52302 4.7323,289.033 5.0127,2.68272 13.65417,2.84133 146.56313,2.69017 136.53888,-0.15529 137.52732,-0.17071 141.40837,-2.20687 z M 352.32061,409.19552 V 240.1832 h 57.79419 57.79419 l 39.45581,119.14662 39.45581,119.14662 0.5,-118.89662 0.5,-118.89662 36.75,-0.26232 36.75,-0.26232 v 169.02038 169.02038 l -58.16504,-0.25806 -58.16504,-0.25806 -39.08496,-118.2735 -39.08496,-118.2735 -0.5,118.2735 -0.5,118.2735 -36.75,0.26232 -36.75,0.26232 z m 71.07895,44.23768 c 0.0434,-67.5125 0.32289,-122.13658 0.62105,-121.38685 0.42191,1.06093 0.71221,1.08792 1.30935,0.12171 0.60374,-0.97686 39.82862,115.88464 78.37999,233.51514 l 3.27733,10 h 55.91666 55.91667 v -166.5 -166.5 h -34.5 -34.5 l -0.5,122.5 c -0.33075,81.03292 -0.83851,122.37634 -1.5,122.13469 -0.55,-0.20092 -19.203,-55.43842 -41.4511,-122.75 L 465.9184,242.1832 h -55.79889 -55.7989 v 167 167 h 34.5 34.5 l 0.079,-122.75 z m 2.92105,-115.75 c 0,-0.275 -0.225,-0.5 -0.5,-0.5 -0.275,0 -0.5,0.225 -0.5,0.5 0,0.275 0.225,0.5 0.5,0.5 0.275,0 0.5,-0.225 0.5,-0.5 z m 293.46047,264.25 c -0.26221,-0.6875 -0.36059,-40.175 -0.21861,-87.75 l 0.25814,-86.5 49.5,0.0222 c 80.28785,0.036 100.02132,10.78358 110.10029,59.96485 12.93308,63.10823 -11.89692,107.11933 -64.56717,114.44509 -11.52496,1.60297 -94.45239,1.44413 -95.07265,-0.18211 z m 107.88269,-5.01036 c 72.62758,-19.71311 69.8179,-149.65593 -3.56334,-164.79844 -8.35396,-1.72387 -13.89424,-1.91624 -55.52982,-1.92806 l -46.25,-0.0131 v 85.06141 85.0614 l 47.75,-0.35573 47.75,-0.35574 z m -54.34316,-81.86783 v -49.12818 l 13.75,0.5198 c 31.08416,1.17511 39.45301,10.11897 40.92474,43.73657 1.87284,42.7798 -7.42478,54 -44.7471,54 h -9.92764 z m 34.21129,44.06724 c 13.41006,-4.51972 18.47598,-18.22293 17.53577,-47.43392 -1.05733,-32.8497 -9.87795,-42.46111 -38.99706,-42.49326 l -10.75,-0.0119 v 46.12595 46.12595 l 14.25,-0.531 c 7.8375,-0.29205 15.92008,-1.09388 17.96129,-1.78185 z m 115.24918,42.81095 c -0.26221,-0.6875 -0.36059,-40.175 -0.21861,-87.75 l 0.25814,-86.5 h 73 72.99999 l 0.2716,19.23979 0.2715,19.2398 -45.2715,0.2602 -45.27159,0.26021 v 12.5 12.5 l 41.74999,0.26097 41.75,0.26097 v 18.47806 18.47806 l -41.75,0.26097 -41.74999,0.26097 -0.27539,15.75 -0.2754,15.75 h 46.52538 46.5254 v 21 21 h -74.03137 c -58.30418,0 -74.13267,-0.26555 -74.50815,-1.25 z m 146.53952,-19.75 v -18 h -46.5 -46.49999 v -18.5 -18.5 h 41.99999 42 v -16.5 -16.5 h -42 -41.99999 v -15 -15 h 44.99999 45 v -17 -17 h -70.49999 -70.5 v 85 85 h 72 71.99999 z m 53.4605,19.75 c -0.2622,-0.6875 -0.3606,-40.175 -0.2186,-87.75 l 0.2581,-86.5 27.4308,-0.2664 c 21.2789,-0.20666 27.6112,0.0176 28.2347,1 0.4421,0.69652 0.8108,30.1789 0.8192,65.5164 l 0.015,64.25 h 41.5 41.5 v 22.5 22.5 h -69.5314 c -54.7042,0 -69.633,-0.26656 -70.0081,-1.25 z m 137.5395,-21.23903 v -19.48903 l -41.75,-0.26097 -41.75,-0.26097 -0.2572,-65.25 -0.2573,-65.25 h -25.4927 -25.4928 v 85 85 h 67.5 67.5 z m 263,-65.52757 v -88.01661 l 26.25,0.26661 26.25,0.2666 23.2418,34 c 12.783,18.7 27.0705,39.6055 31.75,46.45668 l 8.5082,12.45667 v -46.72328 -46.72328 l 26.25,0.26661 26.25,0.2666 v 87.5 87.5 l -26.1801,0.26647 -26.1801,0.26646 -31.5699,-46.16747 -31.5699,-46.16748 v 46.15101 46.15101 h -26.5 -26.5 z m 50,38.0166 c 0,-44.54343 0.094,-47 1.7949,-47 1.2473,0 11.5447,14.32309 33.75,46.94435 l 31.9551,46.94436 24.25,0.0556 24.25,0.0557 v -85 -85 h -24 -24 v 47.5 c 0,38.73063 -0.2442,47.5 -1.323,47.5 -0.7276,0 -15.9107,-21.375 -33.7401,-47.5 l -32.4171,-47.5 h -23.7599 -23.7599 v 85 85 h 23.5 23.5 v -47 z m 404.4666,48.76586 c -0.2656,-0.69622 -0.3667,-40.19086 -0.2247,-87.76586 l 0.2581,-86.5 h 56 c 58.6606,0 63.5362,0.29672 74.9315,4.56024 40.933,15.31501 36.7094,79.15992 -6.0833,91.95601 l -4.1518,1.2415 5.9108,2.95368 c 10.0886,5.04132 45.8928,61.98947 45.8928,72.99444 0,1.73008 -1.5784,1.80921 -31.085,1.55838 l -31.085,-0.26425 -16.0415,-29.48254 c -20.7798,-38.19119 -22.2432,-39.93702 -33.5255,-39.9955 l -4.2371,-0.022 -0.2629,34.75 -0.263,34.75 -27.7753,0.26586 c -21.681,0.20753 -27.8812,-0.0119 -28.2581,-1 z m 53.5334,-36.76586 v -35 l 5.75,0.0439 c 14.2695,0.10893 16.8892,2.95937 37.1811,40.45611 l 15.6938,29 28.7145,0.26538 28.7144,0.26538 -5.4015,-10.26538 c -2.9708,-5.64596 -8.8398,-16.86753 -13.0423,-24.93682 -11.6744,-22.41637 -19.1634,-31.37985 -29.9549,-35.85267 -7.0877,-2.9377 -7.0035,-4.62864 0.3449,-6.9251 37.9568,-11.86195 48.0184,-60.0932 17.2135,-82.51517 -11.6756,-8.4983 -20.4412,-9.49173 -83.9635,-9.51581 l -52.25,-0.0198 v 85 85 h 25.5 25.5 z m 0,-84 v -19 h 17.3185 c 27.2824,0 34.6815,3.91553 34.6815,18.35321 0,14.39252 -10.3198,19.64679 -38.588,19.64679 h -13.412 z m 34.7771,14.4905 c 10.4347,-2.46015 14.2269,-6.63176 14.2192,-15.64163 -0.01,-11.8888 -8.5949,-15.74145 -35.2463,-15.81799 l -10.75,-0.0309 v 16.5 16.5 l 12.75,-0.0148 c 7.7099,-0.009 15.2314,-0.59981 19.0271,-1.49472 z m 165.2229,42.02532 V 472.1832 h -27.5 -27.5 v -22.50578 -22.50578 l 82.75,0.25578 82.75,0.25578 v 22 22 l -27.2428,0.26606 -27.2427,0.26606 -0.2573,65.23394 -0.2572,65.23394 -27.75,0.26582 -27.75,0.26582 z m 53,-2.51582 v -65 h 27.5 27.5 v -20 -20 h -80.5 -80.5 v 20 20 h 27.5 27.5 v 65 65 h 25.5 25.5 z m 104,-20 v -88 h 73 73 v 19.5 19.5 h -45 -45 v 13 13 h 42 42 v 18.5 18.5 h -42 -42 v 15.99001 15.99002 l 46.25,0.25998 46.25,0.25999 0.2703,20.75 0.2703,20.75 h -74.5203 -74.5203 z m 146,67 v -18 h -45.893 c -40.9259,0 -45.9587,-0.1712 -46.5,-1.58179 -0.3339,-0.86998 -0.607,-8.48318 -0.607,-16.91821 0,-8.43503 0.2731,-16.04823 0.607,-16.91821 0.54,-1.40713 5.1775,-1.58179 42,-1.58179 h 41.393 v -16.48903 -16.48903 l -41.75,-0.26097 -41.75,-0.26097 -0.289,-12.5 c -0.159,-6.875 -0.038,-13.5125 0.269,-14.75 l 0.5581,-2.25 h 44.981 44.9809 v -17 -17 h -71 -71 v 85 85 h 72 72 z M 782.82061,384.08305 c -32.63384,-3.87875 -53.09441,-21.11324 -60.65245,-51.08921 -2.33054,-9.2432 -2.34755,-9.73441 -2.34755,-67.81064 v -58.5 h 27.5 27.5 l 0.5,58 c 0.45744,53.06249 0.65329,58.34052 2.30068,62 8.90942,19.79122 40.76658,21.25112 51.23705,2.348 l 2.96227,-5.348 0.5,-58.5 0.5,-58.5 h 27.5 27.5 v 60 c 0,67.39122 0.21047,65.1296 -7.58193,81.47293 -13.95703,29.27266 -47.94499,41.80712 -97.41807,35.92692 z m 50.57437,-3.91509 c 43.5534,-8.92316 52.92563,-30.36628 52.92563,-121.09071 V 209.1832 h -25.45423 -25.45422 l -0.29578,57.25 -0.29577,57.25 -2.30122,5 c -9.73228,21.14586 -45.85773,22.4915 -56.04786,2.08774 -3.70405,-7.41664 -4.1096,-14.22407 -4.13081,-69.33774 l -0.0201,-52.25 h -25.04509 -25.04509 l 0.32747,58.25 c 0.39923,71.01521 0.88652,73.88315 15.50903,91.27939 17.67012,21.02194 55.68381,29.57764 95.32805,21.45537 z m 966.52252,3.87646 c -33.4224,-4.28869 -56.2142,-26.38584 -57.8109,-56.04902 l -0.286,-5.3122 26,-1.64775 c 29.5876,-1.87511 27.032,-2.18027 27.9136,3.33311 4.2103,26.32915 43.5467,34.70546 50.7095,10.79807 3.2254,-10.76536 -4.8745,-16.64058 -33.0876,-23.9999 -49.4356,-12.89517 -66.0796,-27.77964 -64.8655,-58.0082 1.3764,-34.26788 35.7252,-53.75067 86.5208,-49.075 35.2059,3.24065 52.7974,16.0828 59.2948,43.28635 2.6281,11.00361 4.0933,10.29403 -24.3812,11.80777 -27.3035,1.45149 -27.1063,1.47431 -27.9903,-3.23805 -3.04,-16.20442 -28.0538,-24.13116 -38.5228,-12.20766 -8.9579,10.20249 -2.9413,14.73528 29.7926,22.44533 49.8493,11.74134 68.1161,27.39851 68.1161,58.38493 0,43.73856 -40.2225,67.33277 -101.4031,59.48222 z m 35.7872,-1.87398 c 35.6411,-3.46585 58.6332,-21.84492 62.7236,-50.13891 4.6452,-32.13182 -15.0684,-51.0477 -65.6077,-62.95278 -30.9465,-7.28978 -36.2815,-10.26949 -35.2217,-19.67189 2.3155,-20.54344 39.6246,-18.12996 46.268,2.99302 l 1.7979,5.71668 5.5779,-0.4805 c 6.1443,-0.52929 37.6195,-2.44855 40.1988,-2.4512 2.7464,-0.003 -0.019,-10.94708 -5.4987,-21.76052 -19.7437,-38.96239 -110.7026,-36.44572 -130.7068,3.61643 -16.2413,32.52631 4.914,57.74882 60.0913,71.64413 30.873,7.77474 40.1384,16.71424 32.5444,31.39952 -10.9743,21.22198 -54.3516,10.34021 -54.5664,-13.68873 -0.037,-4.19727 -0.4423,-4.24058 -24.9658,-2.67114 -27.3841,1.75251 -24.6453,0.54535 -22.5549,9.9413 6.6338,29.8179 27.4159,45.78044 63.036,48.4174 15.5645,1.15224 15.9198,1.1534 26.8841,0.0872 z m -917.13955,-87.73724 0.25546,-87.75 h 25.99693 25.99694 l 31.50302,46.15442 31.5031,46.15442 0.5,-46.15442 0.5,-46.15442 h 26 26 l 0.2555,87.76634 0.2554,87.76635 -26.6695,-0.26635 -26.6696,-0.26634 -31.0859,-45.4938 -31.08589,-45.49379 -0.26009,45.74379 -0.26009,45.7438 h -26.49537 -26.49537 z m 49.75546,38.25 c 0,-44.62111 0.10636,-47.5 1.75482,-47.5 1.19304,0 12.14251,15.20621 34.20307,47.5 l 32.4483,47.5 h 23.7969 23.7969 v -85.5 -85.5 h -23.4903 -23.4903 l -0.2597,47.75 c -0.2213,40.69671 -0.4717,47.75 -1.6948,47.75 -0.7892,0 -16.0892,-21.48328 -34,-47.74061 l -32.56489,-47.74062 -23.75,-0.009 -23.75,-0.009 v 85.5 85.5 h 23.5 23.5 z m 151.24449,-38.25 0.2555,-87.75 h 27.5 27.5 l 0.2555,87.75 0.2554,87.75 h -28.0109 -28.0109 z m 52.7555,0.25 v -85.5 h -25.5 -25.5 v 85.5 85.5 h 25.5 25.5 z m 51.6929,1.15143 c -17.9811,-47.49172 -32.6929,-87.09172 -32.6929,-88 0,-2.17407 56.0326,-2.56359 57.7452,-0.40143 0.5445,0.6875 9.2,27.575 19.2344,59.75 10.0344,32.175 18.5315,58.81413 18.8824,59.19806 0.3509,0.38394 9.0039,-26.39106 19.229,-59.5 l 18.5909,-60.19806 28.1591,-0.26557 c 26.5932,-0.25081 28.159,-0.16504 28.159,1.54237 0,0.99437 -13.9985,39.36388 -31.1077,85.26557 -17.1092,45.9017 -31.5532,84.69513 -32.0978,86.20763 l -0.9902,2.75 h -30.2092 -30.2093 z m 122.4865,-0.91575 31.6795,-85.23568 -25.1096,-0.26755 c -16.7248,-0.17821 -25.3261,0.0828 -25.758,0.78155 -0.3566,0.577 -9.1284,28.4849 -19.4929,62.01755 -14.5181,46.97091 -19.2066,60.96563 -20.4215,60.95615 -1.2087,-0.009 -6.0128,-14.25641 -20.5769,-61.02273 -10.45,-33.55574 -19.2563,-61.45783 -19.5695,-62.00466 -0.3608,-0.62986 -10.1157,-0.89639 -26.6181,-0.72727 l -26.0486,0.26696 31.6355,83.5 c 17.3995,45.925 31.951,84.2875 32.3367,85.25 0.6445,1.60834 2.9501,1.74884 28.4826,1.73568 l 27.7814,-0.0143 31.6794,-85.23568 z m 47.0651,-0.48568 0.2555,-87.75 72.4369,-0.25663 c 57.2878,-0.20295 72.6037,0.006 73.2347,1 0.9261,1.45883 1.1249,34.82046 0.2214,37.17484 -0.541,1.40988 -5.4859,1.58179 -45.5,1.58179 h -44.893 v 12.5 12.5 h 42.0221 42.022 l -0.272,18.75 -0.2721,18.75 -41.75,0.26097 -41.75,0.26097 v 15.98903 15.98903 h 46.5 46.5 v 20.5 20.5 h -74.5055 -74.5054 z m 145.7555,67.25 v -18.5 h -46 -46 v -18.5 -18.5 h 41.5 41.5 v -16 -16 h -41.5 -41.5 v -15.5 -15.5 h 45 45 v -17 -17 h -70.5 -70.5 v 85.5 85.5 h 71.5 71.5 z m 27,-67.5 v -88 l 47.75,0.0158 c 49.2389,0.0163 67.0125,0.83137 77.5234,3.55501 45.3509,11.7516 45.6808,77.43506 0.4692,93.42272 l -4.7573,1.6823 5.6864,2.91207 c 9.6908,4.96277 46.3283,62.94944 46.3283,73.32453 0,0.76027 -9.44,1.08754 -31.3701,1.08754 h -31.3701 l -15.2552,-28.25 c -20.9701,-38.83281 -23.3958,-41.74997 -34.7165,-41.74997 h -4.2881 v 35 35 h -28 -28 z m 53.2372,50.75 0.2628,-35.25 4.2896,-0.30943 c 14.4239,-1.04047 18.0652,2.82923 38.7694,41.20097 l 15.941,29.54388 28.25,0.0323 c 15.5375,0.0178 28.25,-0.23875 28.25,-0.57002 0,-1.22266 -24.4312,-48.04278 -27.2007,-52.1278 -6.1799,-9.11504 -13.543,-15.93594 -20.3051,-18.80987 -7.9925,-3.39685 -8.1465,-4.84117 -0.7442,-6.97777 47.4136,-13.68532 47.9505,-78.12676 0.75,-90.02756 -6.1641,-1.55417 -13.717,-1.81487 -63.25,-2.18313 l -56.25,-0.41821 v 85.57333 85.57332 h 25.4872 25.4872 l 0.2628,-35.25 z m 0.2069,-67.03513 c -0.2713,-0.70683 -0.3696,-9.14433 -0.2186,-18.75 l 0.2745,-17.46487 h 19.0286 c 29.093,0 39.412,9.07147 30.8481,27.11856 -3.9436,8.31051 -47.2096,16.19235 -49.9326,9.09631 z m 31.9115,-2.33614 c 13.2089,-2.42432 18.969,-8.80117 17.074,-18.90225 -1.8388,-9.80184 -6.5864,-11.83791 -28.6796,-12.29972 l -17.75,-0.37103 v 16.59714 16.59713 l 10.25,0.002 c 5.6375,10e-4 14.235,-0.72936 19.1056,-1.6233 z m 273.6444,18.60545 v -88.01582 l 27.75,0.26582 27.75,0.26582 0.2555,87.75 0.2554,87.75 h -28.0054 -28.0055 z m 53,0.51582 v -85.5 h -25.5 -25.5 v 85.5 85.5 h 25.5 25.5 z m 36.2445,-0.25 0.2555,-87.75 41.5,-0.30237 c 64.64,-0.47097 77.7906,1.96684 95.0978,17.62901 33.6071,30.41265 34.9909,106.34627 2.5181,138.17336 -17.8951,17.53931 -29.4102,19.9923 -93.8714,19.99681 l -45.7554,0.003 0.2554,-87.75 z m 103.069,82.86027 c 75.6686,-16.78841 78.3398,-145.94193 3.429,-165.79106 -5.2849,-1.40034 -13.7206,-1.71551 -54.9925,-2.05454 l -48.75,-0.40047 v 85.6549 85.6549 l 45.25,-0.44321 c 41.8554,-0.40997 45.9862,-0.60656 55.0635,-2.62052 z m -49.3135,-82.99079 V 245.1832 h 7.9276 c 36.0731,0 47.1825,12.03812 47.0415,50.97377 -0.1317,36.37212 -8.0347,45.79721 -39.2191,46.77257 l -15.75,0.49261 z m 35.7373,43.45343 c 12.196,-5.12299 17.1236,-19.77492 15.9609,-47.45918 -1.3738,-32.71112 -10.5014,-42.11373 -40.8819,-42.11373 h -8.8163 v 46.10899 46.109 l 14.75,-0.4326 c 11.1301,-0.32644 15.7899,-0.86942 18.9873,-2.21248 z m 67.6431,42.19261 c 0.3328,-1.24604 15.1218,-40.74052 32.8646,-87.76552 l 32.2596,-85.5 h 30.3759 30.3759 l 32.3718,85.91626 c 17.8045,47.25395 32.3718,86.74145 32.3718,87.75 0,1.73599 -1.5396,1.83374 -28.8821,1.83374 h -28.8822 l -2.6869,-8.75 c -1.4777,-4.8125 -3.413,-11.1125 -4.3004,-14 l -1.6136,-5.25 h -29.609 -29.6089 l -4.0586,13.75 -4.0585,13.75 -28.7622,0.26552 -28.7622,0.26552 z m 58.6196,-14.26552 4.2857,-14.5 h 31.7966 31.7967 l 2.6151,8.75 c 1.4384,4.8125 3.4154,11.225 4.3934,14.25 l 1.7782,5.5 26.1672,0.2666 c 14.3919,0.14664 26.154,-0.0784 26.1379,-0.5 -0.016,-0.42163 -14.3666,-38.7916 -31.8902,-85.2666 l -31.861,-84.5 h -28.3341 -28.3341 l -31.7153,84 c -17.4434,46.2 -31.7425,84.5625 -31.7757,85.25 -0.047,0.96872 5.6455,1.25 25.2968,1.25 h 25.3571 z m 15.9886,-50.75 c -0.01,-0.6875 4.1495,-14.91719 9.235,-31.62154 8.1163,-26.66004 10.5236,-32.71455 12.3008,-30.93736 0.5046,0.50452 19.4735,61.92564 19.4748,63.0589 4e-4,0.4125 -9.2242,0.75 -20.4992,0.75 -15.7273,0 -20.5026,-0.29102 -20.5114,-1.25 z m 32.9229,-16.5 c -2.6793,-8.6625 -6.5395,-21.26852 -8.5782,-28.01337 -2.0386,-6.74485 -3.9937,-11.91985 -4.3446,-11.5 -0.351,0.41985 -4.1649,12.46337 -8.4754,26.76337 -4.3105,14.3 -8.0376,26.5625 -8.2823,27.25 -0.3451,0.96933 3.4841,1.25 17.0536,1.25 h 17.4985 z m 96.0885,-4.25 v -88 h 42.394 c 69.793,0 82.8305,3.20474 100.873,24.79555 25.6984,30.75247 25.2989,99.02765 -0.7486,127.90766 -18.2393,20.2227 -31.0585,23.29679 -97.1494,23.29679 h -45.369 z m 89.8677,84.97866 c 47.8153,-5.03632 68.4349,-29.98921 68.5687,-82.97866 0.086,-34.05891 -5.2527,-50.86026 -21.2612,-66.91165 -17.8952,-17.94311 -24.1208,-19.37304 -86.4252,-19.85053 l -48.75,-0.37362 v 85.5679 85.5679 l 39.25,-0.0173 c 21.5875,-0.01 43.4655,-0.46134 48.6177,-1.00401 z m -36.6273,-84.60894 0.2596,-48.86972 12.1146,0.0649 c 33.5052,0.17959 41.8854,10.27039 41.8854,50.43506 0,38.3832 -6.0397,45.66444 -38.7596,46.72745 l -15.7596,0.51199 0.2596,-48.86972 z m 36.8851,42.36766 c 12.4044,-6.09172 17.8352,-25.30551 14.9475,-52.88395 -2.7664,-26.42064 -11.1639,-34.54209 -36.823,-35.61244 l -12.25,-0.51101 v 46.22878 46.22877 l 14.25,-0.34377 c 13.1676,-0.31765 14.6773,-0.55361 19.8755,-3.10638 z"
       id="path170" />
  </g>
</svg>
