<?xml version="1.0" encoding="UTF-8" standalone="no"?>
<!-- Created with Inkscape (http://www.inkscape.org/) -->

<svg
   width="136.89731mm"
   height="49.65139mm"
   viewBox="0 0 136.89731 49.65139"
   version="1.1"
   id="svg5"
   xml:space="preserve"
   inkscape:export-filename="OneDrive - Universidad del Norte\SEMESTRE 2022-2\DISEÑO DE SOFTWARE\LandingPage\Page\assets\img\logos\Logo.svg"
   inkscape:export-xdpi="100"
   inkscape:export-ydpi="100"
   sodipodi:docname="LogoTemporal.svg"
   inkscape:version="1.2 (dc2aedaf03, 2022-05-15)"
   xmlns:inkscape="http://www.inkscape.org/namespaces/inkscape"
   xmlns:sodipodi="http://sodipodi.sourceforge.net/DTD/sodipodi-0.dtd"
   xmlns="http://www.w3.org/2000/svg"
   xmlns:svg="http://www.w3.org/2000/svg"><sodipodi:namedview
     id="namedview7"
     pagecolor="#000000"
     bordercolor="#000000"
     borderopacity="0.24705882"
     inkscape:showpageshadow="2"
     inkscape:pageopacity="0"
     inkscape:pagecheckerboard="0"
     inkscape:deskcolor="#0000000"
     inkscape:document-units="mm"
     showgrid="false"
     inkscape:zoom="0.71624579"
     inkscape:cx="249.21612"
     inkscape:cy="450.26443"
     inkscape:window-width="1920"
     inkscape:window-height="991"
     inkscape:window-x="-9"
     inkscape:window-y="-9"
     inkscape:window-maximized="1"
     inkscape:current-layer="layer1" /><defs
     id="defs2"><filter
       inkscape:collect="always"
       style="color-interpolation-filters:sRGB"
       id="filter1176"
       x="-0.00015046193"
       y="-0.0012564817"
       width="1.0003009"
       height="1.0025131"><feGaussianBlur
         inkscape:collect="always"
         stdDeviation="0.001175242"
         id="feGaussianBlur1178" /></filter></defs><g
     inkscape:label="Layer 1"
     inkscape:groupmode="layer"
     id="layer1"
     transform="translate(-37.566873,-99.529058)"><g
       id="g996"
       transform="matrix(0.32573077,0,0,0.3410782,74.082713,76.118381)"><path
         style="fill:#99c6e2;stroke-width:0.264583"
         d="m 98.845573,196.08963 c 0.190995,-0.0764 0.419198,-0.067 0.507119,0.0209 0.08792,0.0879 -0.06835,0.15045 -0.347266,0.13896 -0.308226,-0.0127 -0.370919,-0.0754 -0.159853,-0.15985 z m 14.601697,-12.91614 c 6.3289,-6.33015 11.56662,-11.50937 11.63938,-11.50937 0.0728,0 -5.0459,5.17922 -11.3748,11.50937 -6.3289,6.33016 -11.56663,11.50938 -11.63939,11.50938 -0.0728,0 5.0459,-5.17922 11.37481,-11.50938 z m -30.757817,-13.2721 c 0.181901,-0.0734 0.479557,-0.0734 0.661458,0 0.181901,0.0734 0.03307,0.13345 -0.330729,0.13345 -0.363802,0 -0.51263,-0.06 -0.330729,-0.13345 z m 5.308203,-0.005 c 0.190995,-0.0764 0.419198,-0.067 0.507119,0.0209 0.08792,0.0879 -0.06835,0.15045 -0.347266,0.13897 -0.308226,-0.0127 -0.370919,-0.0754 -0.159853,-0.15985 z m -8.131585,-2.35485 c 0.0127,-0.30823 0.07539,-0.37092 0.15985,-0.15986 0.07643,0.191 0.06703,0.4192 -0.02088,0.50712 -0.08792,0.0879 -0.150453,-0.0683 -0.138965,-0.34726 z m -0.264584,-2.11667 c 0.0127,-0.30823 0.07539,-0.37092 0.159851,-0.15985 0.07643,0.19099 0.06703,0.4192 -0.02088,0.50712 -0.08792,0.0879 -0.150452,-0.0684 -0.138964,-0.34727 z m 54.789633,-1.43317 c 0,-0.3638 0.0601,-0.51263 0.13346,-0.33073 0.0734,0.1819 0.0734,0.47956 0,0.66146 -0.0734,0.1819 -0.13346,0.0331 -0.13346,-0.33073 z m -55.054216,-0.6835 c 0.0127,-0.30823 0.07539,-0.37092 0.159851,-0.15986 0.07643,0.191 0.06703,0.4192 -0.02088,0.50712 -0.08792,0.0879 -0.150453,-0.0683 -0.138964,-0.34726 z m 23.923906,-0.11025 c 0.26339,-0.29104 0.53842,-0.52917 0.61118,-0.52917 0.0728,0 -0.0832,0.23813 -0.3466,0.52917 -0.26339,0.29104 -0.53842,0.52917 -0.61118,0.52917 -0.0728,0 0.0832,-0.23813 0.3466,-0.52917 z m 1.45521,-1.42281 c 0,-0.0549 0.20836,-0.2633 0.46302,-0.46302 0.41964,-0.32911 0.429,-0.31975 0.0999,0.0999 -0.34564,0.44073 -0.56291,0.58089 -0.56291,0.36313 z m -25.643699,-1.11278 c 0.0127,-0.30822 0.07539,-0.37092 0.15985,-0.15985 0.07643,0.19099 0.06703,0.4192 -0.02087,0.50712 -0.08792,0.0879 -0.150453,-0.0684 -0.138965,-0.34727 z m -0.02089,-1.79764 c 0,-0.0549 0.208359,-0.2633 0.463021,-0.46302 0.419645,-0.32911 0.429003,-0.31975 0.0999,0.0999 -0.345644,0.44073 -0.562917,0.58088 -0.562917,0.36312 z m 71.437499,-12.73239 c 4.72775,-4.72943 8.65544,-8.59896 8.7282,-8.59896 0.0728,0 -3.73587,3.86953 -8.46361,8.59896 -4.72775,4.72942 -8.65544,8.59895 -8.7282,8.59895 -0.0728,0 3.73587,-3.86953 8.46361,-8.59895 z m -64.293749,5.82083 c 0.790422,-0.80037 1.496663,-1.45521 1.569424,-1.45521 0.07276,0 -0.514419,0.65484 -1.304841,1.45521 -0.790421,0.80036 -1.496663,1.45521 -1.569423,1.45521 -0.07276,0 0.514418,-0.65485 1.30484,-1.45521 z m -15.92461,0.7453 c 0.190995,-0.0764 0.419198,-0.067 0.507119,0.0209 0.08792,0.0879 -0.06835,0.15045 -0.347265,0.13896 -0.308227,-0.0127 -0.37092,-0.0754 -0.159854,-0.15985 z m -2.645833,-0.26458 c 0.190995,-0.0764 0.419198,-0.067 0.507119,0.0209 0.08792,0.0879 -0.06835,0.15046 -0.347266,0.13897 -0.308226,-0.0127 -0.370919,-0.0754 -0.159853,-0.15985 z m -2.116667,-0.26459 c 0.190995,-0.0764 0.419198,-0.067 0.507119,0.0209 0.08792,0.0879 -0.06835,0.15045 -0.347266,0.13897 -0.308226,-0.0127 -0.370919,-0.0754 -0.159853,-0.15986 z m -2.116667,-0.26458 c 0.190995,-0.0764 0.419198,-0.067 0.507119,0.0209 0.08792,0.0879 -0.06835,0.15045 -0.347265,0.13896 -0.308227,-0.0127 -0.37092,-0.0754 -0.159854,-0.15985 z m -2.38125,-0.26458 c 0.190995,-0.0764 0.419198,-0.067 0.507119,0.0209 0.08792,0.0879 -0.06835,0.15046 -0.347265,0.13897 -0.308227,-0.0127 -0.37092,-0.0754 -0.159854,-0.15985 z m -1.781585,-4.7361 c 0.0127,-0.30823 0.07539,-0.37092 0.159851,-0.15986 0.07643,0.191 0.06703,0.41921 -0.02088,0.50712 -0.08792,0.0879 -0.150452,-0.0683 -0.138964,-0.34726 z m -20.661224,-5.07118 -4.627374,-4.69636 4.696355,4.62737 c 2.582995,2.54506 4.696354,4.65842 4.696354,4.69636 0,0.18855 -0.466171,-0.26412 -4.765335,-4.62737 z m 42.468461,3.63802 c 0.26339,-0.29104 0.538422,-0.52917 0.611182,-0.52917 0.07276,0 -0.08321,0.23813 -0.346599,0.52917 -0.26339,0.29104 -0.538422,0.52916 -0.611182,0.52916 -0.07276,0 0.08321,-0.23812 0.346599,-0.52916 z m 12.832292,-0.92604 c 0.790421,-0.80037 1.496663,-1.45521 1.569424,-1.45521 0.07276,0 -0.514419,0.65484 -1.304841,1.45521 -0.790421,0.80036 -1.496663,1.4552 -1.569423,1.4552 -0.07276,0 0.514418,-0.65484 1.30484,-1.4552 z m -7.805209,-4.10105 c 1.303621,-1.30968 2.429749,-2.38125 2.502509,-2.38125 0.07276,0 -0.934305,1.07157 -2.237925,2.38125 -1.303621,1.30969 -2.429748,2.38125 -2.502509,2.38125 -0.07276,0 0.934305,-1.07156 2.237925,-2.38125 z m -26.83432,-0.15434 c 0.0127,-0.30822 0.07539,-0.37091 0.159851,-0.15985 0.07643,0.191 0.06703,0.4192 -0.02088,0.50712 -0.08792,0.0879 -0.150452,-0.0684 -0.138964,-0.34727 z m 47.141091,-3.20304 c 0.25466,-0.0666 0.67138,-0.0666 0.92604,0 0.25466,0.0665 0.0463,0.121 -0.46302,0.121 -0.50932,0 -0.71768,-0.0545 -0.46302,-0.121 z m -15.941146,-1.27282 c 0.341776,-0.36381 0.68094,-0.66146 0.7537,-0.66146 0.07276,0 -0.147341,0.29765 -0.489116,0.66146 -0.341776,0.3638 -0.68094,0.66145 -0.7537,0.66145 -0.07276,0 0.147341,-0.29765 0.489116,-0.66145 z m 70.135476,-1.34497 c 0.0127,-0.30823 0.0754,-0.37092 0.15985,-0.15985 0.0764,0.19099 0.067,0.4192 -0.0209,0.50712 -0.0879,0.0879 -0.15045,-0.0684 -0.13896,-0.34727 z m -124.852647,-0.7717 c 0.0054,-0.43656 0.06469,-0.58313 0.131774,-0.3257 0.06708,0.25744 0.06267,0.61462 -0.0098,0.79375 -0.07248,0.17914 -0.127363,-0.0315 -0.121971,-0.46805 z m 124.852647,-0.8158 c 0.0127,-0.30823 0.0754,-0.37092 0.15985,-0.15985 0.0764,0.19099 0.067,0.4192 -0.0209,0.50712 -0.0879,0.0879 -0.15045,-0.0684 -0.13896,-0.34727 z M 34.072264,130.32043 c 0,-0.0378 2.351484,-2.38927 5.225521,-5.22552 l 5.225521,-5.15683 -5.156831,5.22552 c -4.791361,4.85518 -5.294211,5.34498 -5.294211,5.15683 z m 127.773726,-0.65892 -0.64143,-0.7276 0.7276,0.64143 c 0.40019,0.35279 0.72761,0.68021 0.72761,0.72761 0,0.2075 -0.21426,0.0386 -0.81378,-0.64144 z M 68.683072,97.400044 c 0.190995,-0.07643 0.419198,-0.06703 0.507119,0.02088 0.08792,0.08792 -0.06835,0.150453 -0.347265,0.138965 -0.308227,-0.0127 -0.37092,-0.07539 -0.159854,-0.159851 z m 58.257948,-1.274469 c 0.34177,-0.363802 0.68094,-0.661459 0.7537,-0.661459 0.0728,0 -0.14734,0.297657 -0.48912,0.661459 -0.34178,0.363802 -0.68094,0.661458 -0.7537,0.661458 -0.0728,0 0.14734,-0.297656 0.48912,-0.661458 z M 97.770703,71.200307 c 0.327422,-0.06306 0.863203,-0.06306 1.190625,0 0.327422,0.06306 0.05953,0.114662 -0.595312,0.114662 -0.654844,0 -0.922735,-0.0516 -0.595313,-0.114662 z"
         id="path1010" /><path
         style="fill:#fadc58;stroke-width:0.264583"
         d="m 72.827601,119.83775 c -0.265629,-0.67485 -0.484627,-6.1955 -0.287459,-7.24649 l 0.177823,-0.94788 2.836006,1.18487 c 1.559801,0.65168 4.258596,1.86314 5.997321,2.69214 l 3.161321,1.50727 -1.573821,0.21223 c -2.715027,0.36612 -6.061004,1.25245 -8.140078,2.15626 -1.752124,0.76168 -2.023407,0.81686 -2.171113,0.4416 z m 35.063419,-16.71169 c -5.16599,-0.69821 -9.42755,-1.27902 -9.470127,-1.29071 -0.04258,-0.0117 0.563015,-0.82491 1.345761,-1.80717 1.829066,-2.295283 2.038946,-2.711552 2.038946,-4.043962 0,-0.900689 -0.16446,-1.266642 -0.89958,-2.001768 -1.862676,-1.862673 -3.595575,-1.038034 -7.554002,3.594737 l -2.894229,3.387283 -1.932866,-0.36942 c -1.063077,-0.20317 -3.718804,-0.685791 -5.901616,-1.072474 -2.182813,-0.386681 -4.063024,-0.784344 -4.178247,-0.883692 -0.377558,-0.325544 4.684271,-4.856563 6.916896,-6.191555 4.084609,-2.442379 8.430747,-3.597796 13.533226,-3.597796 5.095338,0 9.419928,1.148117 13.551768,3.597796 2.32557,1.378778 6.84254,5.600751 8.26599,7.726141 l 0.76182,1.13749 -1.55807,1.57449 c -0.96212,0.97227 -1.76364,1.56218 -2.09552,1.54229 -0.29559,-0.0177 -4.76416,-0.60348 -9.93015,-1.30168 z"
         id="path1008" /><path
         style="fill:#ec6b8e;stroke-width:0.264583"
         d="m 116.68841,158.77138 c 0.54571,-0.0571 1.43867,-0.0571 1.98438,0 0.5457,0.0571 0.0992,0.10378 -0.99219,0.10378 -1.09141,0 -1.53789,-0.0467 -0.99219,-0.10378 z m -3.30729,-0.24707 c 0.1819,-0.0734 0.47956,-0.0734 0.66146,0 0.1819,0.0734 0.0331,0.13345 -0.33073,0.13345 -0.3638,0 -0.51263,-0.0601 -0.33073,-0.13345 z m 19.93079,-6.06453 c 0.0127,-0.30823 0.0754,-0.37092 0.15985,-0.15985 0.0764,0.19099 0.067,0.4192 -0.0209,0.50711 -0.0879,0.0879 -0.15045,-0.0684 -0.13896,-0.34726 z m 2.88952,-1.30087 c 0.34178,-0.3638 0.68094,-0.66146 0.7537,-0.66146 0.0728,0 -0.14734,0.29766 -0.48911,0.66146 -0.34178,0.3638 -0.68094,0.66146 -0.7537,0.66146 -0.0728,0 0.14734,-0.29766 0.48911,-0.66146 z m -3.15411,-0.022 c 0.0127,-0.30823 0.0754,-0.37092 0.15985,-0.15985 0.0764,0.19099 0.067,0.4192 -0.0209,0.50712 -0.0879,0.0879 -0.15046,-0.0684 -0.13897,-0.34727 z m -0.26458,-1.5875 c 0.0127,-0.30823 0.0754,-0.37092 0.15985,-0.15985 0.0764,0.19099 0.067,0.4192 -0.0209,0.50712 -0.0879,0.0879 -0.15045,-0.0684 -0.13896,-0.34727 z m -0.52917,-2.91042 c 0.0127,-0.30822 0.0754,-0.37092 0.15985,-0.15985 0.0764,0.19099 0.067,0.4192 -0.0209,0.50712 -0.0879,0.0879 -0.15046,-0.0684 -0.13897,-0.34727 z m -0.52916,-2.91041 c 0.0127,-0.30823 0.0754,-0.37092 0.15985,-0.15986 0.0764,0.191 0.067,0.4192 -0.0209,0.50712 -0.0879,0.0879 -0.15045,-0.0683 -0.13896,-0.34726 z m -0.26459,-1.5875 c 0.0127,-0.30823 0.0754,-0.37092 0.15985,-0.15986 0.0764,0.191 0.067,0.4192 -0.0209,0.50712 -0.0879,0.0879 -0.15046,-0.0684 -0.13897,-0.34726 z m 1.6989,-2.22692 c 0.71667,-0.72761 1.36256,-1.32292 1.43532,-1.32292 0.0728,0 -0.45407,0.59531 -1.17073,1.32292 -0.71667,0.7276 -1.36256,1.32291 -1.43532,1.32291 -0.0728,0 0.45407,-0.59531 1.17073,-1.32291 z m -20.51945,-0.19844 -0.9118,-0.99219 0.99219,0.9118 c 0.5457,0.50149 0.99219,0.94797 0.99219,0.99219 0,0.20204 -0.2239,0.0117 -1.07258,-0.9118 z m 30.7268,-1.80799 c 0.0127,-0.30822 0.0754,-0.37091 0.15985,-0.15985 0.0764,0.191 0.067,0.4192 -0.0209,0.50712 -0.0879,0.0879 -0.15046,-0.0684 -0.13897,-0.34727 z m -6.90005,-0.98678 c 0,-0.0455 0.38695,-0.43249 0.85989,-0.8599 l 0.8599,-0.7771 -0.77711,0.85989 c -0.72437,0.80155 -0.94268,0.98152 -0.94268,0.77711 z m 7.16464,-0.33613 c 0.0127,-0.30823 0.0754,-0.37092 0.15985,-0.15986 0.0764,0.191 0.067,0.41921 -0.0209,0.50712 -0.0879,0.0879 -0.15045,-0.0684 -0.13896,-0.34726 z m 0.33439,-4.21129 c 0.001,-1.16416 0.0475,-1.6075 0.10337,-0.98519 0.0559,0.62231 0.0551,1.57481 -0.002,2.11666 -0.0569,0.54186 -0.10258,0.0327 -0.10162,-1.13147 z m -12.52612,1.09073 c 0,-0.0549 0.20836,-0.2633 0.46302,-0.46302 0.41965,-0.32911 0.42901,-0.31975 0.0999,0.0999 -0.34564,0.44073 -0.56292,0.58088 -0.56292,0.36312 z m -1.01656,-0.69385 c 0,-0.3638 0.0601,-0.51263 0.13346,-0.33073 0.0734,0.1819 0.0734,0.47956 0,0.66146 -0.0734,0.1819 -0.13346,0.0331 -0.13346,-0.33073 z m 2.60406,-0.62907 c 0,-0.0549 0.20836,-0.2633 0.46302,-0.46302 0.41965,-0.3291 0.42901,-0.31975 0.0999,0.0999 -0.34564,0.44073 -0.56292,0.58089 -0.56292,0.36312 z m -2.86864,-1.22302 c 0,-0.3638 0.0601,-0.51263 0.13345,-0.33073 0.0734,0.18191 0.0734,0.47956 0,0.66146 -0.0734,0.1819 -0.13345,0.0331 -0.13345,-0.33073 z m 8.12656,-0.19843 c -0.32911,-0.41965 -0.31975,-0.42901 0.0999,-0.0999 0.44073,0.34564 0.58088,0.56292 0.36312,0.56292 -0.0549,0 -0.2633,-0.20836 -0.46302,-0.46302 z m -8.41203,-1.80799 c 0.0127,-0.30823 0.0754,-0.37092 0.15985,-0.15985 0.0764,0.19099 0.067,0.4192 -0.0209,0.50712 -0.0879,0.0879 -0.15046,-0.0684 -0.13897,-0.34727 z m 13.75834,-0.52917 c 0.0127,-0.30822 0.0754,-0.37091 0.15985,-0.15985 0.0764,0.191 0.067,0.4192 -0.0209,0.50712 -0.0879,0.0879 -0.15045,-0.0684 -0.13896,-0.34727 z m -14.00204,-1.43316 c 0,-0.3638 0.0601,-0.51263 0.13346,-0.33073 0.0734,0.18191 0.0734,0.47956 0,0.66146 -0.0734,0.1819 -0.13346,0.0331 -0.13346,-0.33073 z m -0.26458,-1.85208 c 0,-0.3638 0.0601,-0.51263 0.13345,-0.33073 0.0734,0.1819 0.0734,0.47956 0,0.66146 -0.0734,0.1819 -0.13345,0.0331 -0.13345,-0.33073 z m -0.26458,-1.85208 c 0,-0.36381 0.0601,-0.51263 0.13345,-0.33073 0.0734,0.1819 0.0734,0.47956 0,0.66146 -0.0734,0.1819 -0.13345,0.0331 -0.13345,-0.33073 z m -0.28547,-2.00643 c 0.0127,-0.30822 0.0754,-0.37092 0.15985,-0.15985 0.0764,0.191 0.067,0.4192 -0.0209,0.50712 -0.0879,0.0879 -0.15045,-0.0683 -0.13896,-0.34727 z m -0.26458,-1.85208 c 0.0127,-0.30823 0.0754,-0.37092 0.15985,-0.15985 0.0764,0.19099 0.067,0.4192 -0.0209,0.50712 -0.0879,0.0879 -0.15045,-0.0684 -0.13896,-0.34727 z m -0.2437,-1.96233 c 0,-0.3638 0.06,-0.51263 0.13345,-0.33073 0.0734,0.18191 0.0734,0.47956 0,0.66146 -0.0734,0.1819 -0.13345,0.0331 -0.13345,-0.33073 z m -0.26459,-1.85208 c 0,-0.3638 0.0601,-0.51263 0.13346,-0.33073 0.0734,0.1819 0.0734,0.47956 0,0.66146 -0.0734,0.1819 -0.13346,0.0331 -0.13346,-0.33073 z m 9.06122,-0.8599 -0.50403,-0.59531 0.59531,0.50403 c 0.55945,0.47366 0.71576,0.6866 0.50403,0.6866 -0.0502,0 -0.3181,-0.26789 -0.59531,-0.59532 z m -9.36757,-0.91569 c 0,-0.15195 0.20836,-0.43969 0.46302,-0.63941 0.42829,-0.33589 0.43391,-0.32344 0.0749,0.16604 -0.21349,0.29104 -0.42185,0.57878 -0.46302,0.63941 -0.0412,0.0606 -0.0749,-0.0141 -0.0749,-0.16604 z m 7.25939,-1.20097 -0.7771,-0.8599 0.85989,0.77711 c 0.80155,0.72437 0.98152,0.94268 0.77711,0.94268 -0.0455,0 -0.43249,-0.38695 -0.8599,-0.85989 z"
         id="path1006" /><path
         style="fill:#58a1d1;stroke-width:0.264583"
         d="m 86.854868,190.11881 -7.406561,-7.47448 7.474479,7.40656 c 6.946051,6.88293 7.593637,7.5424 7.406561,7.5424 -0.03735,0 -3.40087,-3.36352 -7.474479,-7.47448 z m 27.121562,-4.29948 c 6.47445,-6.47568 11.83126,-11.77396 11.90402,-11.77396 0.0728,0 -5.16498,5.29828 -11.63943,11.77396 -6.47446,6.47567 -11.83126,11.77396 -11.90402,11.77396 -0.0728,0 5.16498,-5.29829 11.63943,-11.77396 z m -26.46851,2.11529 c -3.861901,-3.85555 -6.956684,-7.01008 -6.877296,-7.01008 0.07939,0 3.297814,3.15515 7.152058,7.01145 3.854244,3.85631 6.949025,7.01084 6.877294,7.01009 -0.07173,-7.9e-4 -3.290155,-3.15591 -7.152056,-7.01146 z m -21.041389,-18.19324 -1.041141,-1.11927 1.055415,0.92569 c 0.580477,0.50913 1.106337,0.95546 1.168577,0.99184 0.06224,0.0364 0.05581,0.12349 -0.01429,0.19358 -0.07009,0.0701 -0.595948,-0.37624 -1.168578,-0.99184 z m -4.35949,-4.35358 c -0.648763,-0.68708 -0.93178,-1.04401 -0.62893,-0.79318 0.30285,0.25084 0.600506,0.42604 0.661458,0.38935 0.06095,-0.0367 0.07939,-0.0155 0.04097,0.0472 -0.03842,0.0627 0.251748,0.44962 0.644813,0.8599 0.393065,0.41027 0.657646,0.74594 0.58796,0.74594 -0.06969,0 -0.657511,-0.56215 -1.306272,-1.24923 z m 86.265229,-13.96431 c 7.49326,-7.49432 13.68364,-13.62604 13.7564,-13.62604 0.0728,0 -5.99855,6.13172 -13.49182,13.62604 -7.49326,7.49433 -13.68365,13.62604 -13.75641,13.62604 -0.0728,0 5.99856,-6.13171 13.49183,-13.62604 z m -10.98021,9.12813 c 1.59576,-1.60073 2.96092,-2.91042 3.03368,-2.91042 0.0728,0 -1.17333,1.30969 -2.7691,2.91042 -1.59576,1.60073 -2.96092,2.91041 -3.03368,2.91041 -0.0728,0 1.17333,-1.30968 2.7691,-2.91041 z m -91.153278,-11.04636 -3.038393,-3.10885 3.108855,3.03839 c 1.709869,1.67112 3.108854,3.0701 3.108854,3.10886 0,0.19054 -0.35708,-0.15071 -3.179316,-3.0384 z m 4.578498,2.17102 c 0.114706,-0.12591 -2.980092,-3.41922 -6.877329,-7.31846 -3.897238,-3.89925 -7.026356,-7.08954 -6.953595,-7.08954 0.07276,0 3.329934,3.19929 7.238163,7.10953 5.12212,5.12476 7.005138,7.16786 6.745038,7.31847 -0.200188,0.11591 -0.267983,0.10701 -0.152277,-0.02 z m 108.4029,-14.24331 c 0,-0.0549 0.20836,-0.2633 0.46302,-0.46302 0.41965,-0.32911 0.42901,-0.31975 0.0999,0.0999 -0.34564,0.44073 -0.56292,0.58088 -0.56292,0.36312 z m -11.99133,-19.43205 c -11.13193,-11.13391 -12.08221,-12.15343 -11.64059,-12.4888 0.41434,-0.31465 0.43427,-0.31302 0.14407,0.0118 -0.28233,0.316 1.62169,2.33582 11.77288,12.4888 6.66033,6.66152 12.05016,12.11184 11.9774,12.11184 -0.0728,0 -5.58695,-5.45562 -12.25376,-12.12361 z m 1.67152,-1.30399 -12.30206,-12.36927 12.36927,12.30206 c 6.8031,6.76613 12.36927,12.3323 12.36927,12.36927 0,0.18607 -1.00185,-0.80495 -12.43648,-12.30206 z M 51.137889,113.1912 c 3.781443,-3.78354 6.934882,-6.87917 7.007643,-6.87917 0.07276,0 -2.961616,3.09563 -6.743059,6.87917 -3.781443,3.78354 -6.934882,6.87917 -7.007642,6.87917 -0.07276,0 2.961616,-3.09563 6.743058,-6.87917 z M 67.409765,97.116789 c 0,-0.109676 6.101953,-6.27116 13.559896,-13.692187 L 94.529557,69.931824 81.091412,83.437081 c -7.390982,7.427892 -13.354029,13.589376 -13.251218,13.692188 0.102812,0.102812 0.04803,0.186931 -0.121748,0.186931 -0.169775,0 -0.308681,-0.08973 -0.308681,-0.199411 z m 3.836458,-1.917256 c 1.157338,-1.164167 2.163784,-2.116667 2.236544,-2.116667 0.07276,0 -0.814623,0.9525 -1.97196,2.116667 -1.157338,1.164167 -2.163784,2.116667 -2.236544,2.116667 -0.07276,0 0.814623,-0.9525 1.97196,-2.116667 z m 42.596837,-10.649479 -12.16975,-12.23698 12.23698,12.169755 c 6.73034,6.693366 12.23698,12.200006 12.23698,12.236979 0,0.186086 -0.99259,-0.795653 -12.30421,-12.169754 z m 1.05838,-1.852084 -12.69897,-12.766146 12.76615,12.698967 c 7.02138,6.984431 12.76615,12.729199 12.76615,12.766145 0,0.186023 -1.02965,-0.832847 -12.83333,-12.698966 z"
         id="path1004" /><path
         style="fill:#6fae3c;stroke-width:0.264583"
         d="m 82.11069,169.80163 c -0.864023,-0.13615 -1.650823,-0.33833 -1.748441,-0.4493 -0.09762,-0.11096 -0.379748,-1.98769 -0.626957,-4.1705 -0.247205,-2.18282 -0.512537,-4.45353 -0.589626,-5.04604 l -0.140163,-1.07728 8.621607,-8.30651 c 8.936696,-8.61009 10.894888,-10.20119 15.15054,-12.31034 2.66204,-1.31934 4.74319,-1.50919 7.04766,-0.64293 1.13444,0.42645 1.61099,0.76208 1.81814,1.28051 0.1544,0.38642 0.27825,2.42899 0.27522,4.53904 -0.005,3.26268 -0.10795,4.22935 -0.69042,6.46341 -2.98321,11.44216 -12.885473,19.42455 -24.636193,19.85969 -1.600729,0.0593 -3.617344,-0.004 -4.481367,-0.13975 z m -11.9228,-17.10304 c -2.037866,-0.25887 -9.54509,-1.14287 -9.705391,-1.14284 -0.09921,2e-5 -0.396869,-0.9227 -0.661458,-2.05049 -0.704821,-3.00425 -0.639474,-9.48504 0.123859,-12.28339 1.676401,-6.14564 5.021837,-11.12755 9.930364,-14.78799 3.78602,-2.82335 8.567626,-4.68966 13.210109,-5.15605 1.750832,-0.17589 1.819762,-0.15866 3.602924,0.9007 4.528137,2.69011 7.32256,5.29625 8.371993,7.8079 0.809977,1.93855 0.292037,3.86385 -1.789411,6.65165 -0.760553,1.01864 -5.479733,5.9895 -10.487071,11.04635 l -9.104251,9.19427 -1.348957,-0.0396 c -0.741929,-0.0218 -1.706148,-0.085 -2.14271,-0.14047 z"
         id="path1002" /><path
         style="fill:#e1134b;stroke-width:0.264583"
         d="m 113.57956,158.51048 c -0.98024,-0.13556 -3.62361,-0.80145 -4.4917,-1.1315 l -0.64375,-0.24475 1.06457,-2.27175 c 1.73769,-3.70811 2.39812,-6.73959 2.42082,-11.1119 0.0106,-2.0373 -0.0737,-4.00183 -0.18725,-4.36563 -0.18306,-0.5864 -0.0815,-0.54137 0.89483,0.39688 1.57976,1.51809 2.14596,2.622 3.93551,7.67291 0.87649,2.47386 2.13413,6.01597 2.79477,7.87136 l 1.20115,3.37343 -3.0976,-0.0396 c -1.70368,-0.0218 -3.45479,-0.089 -3.89135,-0.14941 z m 19.06838,-10.73717 c -0.54583,-3.08563 -1.01064,-5.72957 -1.03291,-5.87543 -0.0223,-0.14586 1.38751,-1.61273 3.13285,-3.25972 3.53733,-3.338 4.36061,-4.4611 4.36262,-5.95133 0.002,-1.34166 -0.38844,-2.0019 -1.4439,-2.4429 -1.29221,-0.53992 -2.24314,-0.14788 -4.73871,1.95362 l -2.17911,1.83501 -1.39875,-10.14765 -1.39874,-10.14765 0.53169,-0.73605 c 0.29242,-0.40483 1.07415,-1.26392 1.73717,-1.90909 l 1.20548,-1.17304 1.43024,0.98504 c 3.29857,2.27182 7.14391,6.92027 8.77429,10.60685 0.37185,0.84083 0.99257,2.55731 1.37937,3.8144 0.64961,2.11119 0.70361,2.64908 0.70759,7.04812 0.004,4.09482 -0.0765,5.05123 -0.57215,6.82196 -0.67889,2.42539 -2.27028,5.91934 -3.62719,7.96362 -1.09121,1.64398 -4.05177,4.9245 -5.1498,5.70637 l -0.72762,0.51811 z"
         id="path1000" /><path
         style="fill:#0372ba;stroke-width:0.264583"
         d="m 97.439974,199.06377 c -0.145521,-0.0557 -0.621771,-0.17915 -1.058333,-0.27431 -0.578835,-0.12619 -2.96081,-2.33376 -8.797396,-8.15328 -4.402006,-4.38914 -8.000998,-8.04239 -7.997762,-8.11835 0.0032,-0.0759 0.23541,-0.43574 0.515945,-0.79954 l 0.510061,-0.66146 7.223118,7.16415 c 4.226195,4.1917 7.623929,7.3478 8.189145,7.60677 1.208172,0.55356 3.113522,0.56842 4.400278,0.0343 0.67195,-0.27892 4.73305,-4.1528 12.81476,-12.22398 6.50708,-6.49861 11.87698,-11.76198 11.93311,-11.69637 0.0561,0.0656 0.24177,0.53254 0.41254,1.03764 l 0.31047,0.91836 -12.1113,12.12957 c -6.66122,6.67126 -12.42011,12.29385 -12.79753,12.49464 -0.69209,0.36819 -3.057008,0.72945 -3.547106,0.54185 z M 66.385502,169.45031 c -0.620189,-0.63987 -0.762159,-0.92977 -0.503865,-1.02889 0.22074,-0.0847 0.588301,0.25934 0.951775,0.89089 0.325684,0.56589 0.552424,1.02889 0.503865,1.02889 -0.04856,0 -0.476859,-0.4009 -0.951775,-0.89089 z m -3.893677,-3.89873 -1.035185,-1.06353 1.256771,0.70024 c 1.224317,0.68215 1.48763,1.01025 1.035185,1.28988 -0.121875,0.0753 -0.687422,-0.34164 -1.256771,-0.92659 z m 72.122105,-1.13752 c 0,-0.62211 0.60967,-1.39179 3.24774,-4.1001 1.78626,-1.83382 3.4656,-3.81047 3.73187,-4.39255 0.32071,-0.7011 3.50811,-4.09485 9.44283,-10.05417 6.01797,-6.04291 9.09208,-9.31873 9.36501,-9.97952 0.53118,-1.28603 0.51678,-3.19147 -0.0333,-4.40028 -0.27302,-0.59999 -5.08338,-5.62842 -12.69526,-13.27077 l -12.25568,-12.30473 0.59057,-0.7344 0.59056,-0.73439 13.27495,13.30371 c 12.03956,12.06565 13.304,13.41426 13.58717,14.4916 0.35176,1.33836 0.19084,3.09594 -0.38221,4.17449 -0.21129,0.39767 -6.7022,7.03293 -14.42423,14.74502 -12.43361,12.41761 -14.04006,13.93435 -14.04006,13.25609 z M 41.548101,144.59589 c -7.090192,-7.11467 -7.995892,-8.11908 -8.275143,-9.17695 -0.353058,-1.33747 -0.192749,-3.09486 0.380797,-4.17449 0.211262,-0.39767 5.852881,-6.18359 12.536931,-12.85759 l 12.152817,-12.13455 0.970006,0.35076 0.970005,0.35076 -11.905695,11.91608 c -8.169138,8.17627 -12.033174,12.22481 -12.311875,12.89977 -0.223399,0.54103 -0.403565,1.434 -0.400369,1.98438 0.01221,2.10176 0.756431,3.05576 8.235256,10.55643 l 7.153599,7.17449 -0.772379,0.54998 -0.772379,0.54998 z M 67.836583,97.100064 c -0.07347,-0.118872 6.140521,-6.481448 13.808864,-14.139055 9.797788,-9.784071 14.178402,-13.986357 14.736194,-14.136317 1.253344,-0.336954 3.638149,-0.200601 4.502189,0.257417 0.43421,0.230173 6.61867,6.255874 13.74324,13.390448 l 12.95378,12.971951 -0.6385,0.679651 -0.6385,0.679651 -12.31527,-12.284985 c -8.0789,-8.059026 -12.69846,-12.476141 -13.42921,-12.84068 -1.317107,-0.657047 -2.88955,-0.712291 -4.252374,-0.149399 -0.660807,0.272937 -3.979857,3.387643 -10.111814,9.489266 -5.020469,4.995633 -9.425781,9.279503 -9.789584,9.519711 -0.363802,0.240208 -2.170332,1.863632 -4.014512,3.607609 -3.093268,2.925197 -4.149331,3.610317 -4.554503,2.954732 z"
         id="path998" /></g><text
       xml:space="preserve"
       style="font-style:italic;font-variant:normal;font-weight:bold;font-stretch:normal;font-size:3.175px;font-family:Cambria;-inkscape-font-specification:'Cambria, Bold Italic';font-variant-ligatures:normal;font-variant-caps:normal;font-variant-numeric:normal;font-variant-east-asian:normal;mix-blend-mode:normal;fill:#ffffff;fill-opacity:1;stroke-width:0.264583;filter:url(#filter1176)"
       x="30.291044"
       y="104.17165"
       id="text365"
       transform="matrix(7.3005703,0,0,7.3005703,-183.62304,-611.53191)"><tspan
         sodipodi:role="line"
         id="tspan363"
         style="font-style:italic;font-variant:normal;font-weight:bold;font-stretch:normal;font-size:3.175px;font-family:Cambria;-inkscape-font-specification:'Cambria, Bold Italic';font-variant-ligatures:normal;font-variant-caps:normal;font-variant-numeric:normal;font-variant-east-asian:normal;opacity:1;fill:#000000;fill-opacity:1;stroke-width:0.264583"
         x="30.291044"
         y="104.17165">Postal Travel</tspan></text></g></svg>
